<svg width="19" height="18" viewBox="0 0 19 18" fill="none" xmlns="http://www.w3.org/2000/svg">
<path d="M7.67485 9.10305V14.613C7.67485 14.6954 7.73805 14.7573 7.82231 14.7573H9.91481C9.99907 14.7573 10.0623 14.6954 10.0623 14.613V9.01374H11.579C11.6562 9.01374 11.7194 8.95878 11.7264 8.88321L11.8739 7.19313C11.8809 7.11069 11.8177 7.03511 11.7264 7.03511H10.0623V5.83969C10.0623 5.55801 10.294 5.3313 10.5819 5.3313H11.7475C11.8318 5.3313 11.895 5.26947 11.895 5.18702V3.49695C11.895 3.4145 11.8318 3.35267 11.7475 3.35267H9.77437C8.61577 3.35267 7.67485 4.27328 7.67485 5.40687V7.03511H6.6286C6.54434 7.03511 6.48114 7.09695 6.48114 7.17939V8.86946C6.48114 8.95191 6.54434 9.01374 6.6286 9.01374H7.67485V9.10305ZM18.3972 9C18.3972 13.9672 14.2824 18 9.19858 18C4.11479 18 0 13.9672 0 9C0 4.02595 4.11479 0 9.19858 0C14.2824 0 18.3972 4.02595 18.3972 9Z" fill="#2D3285"/>
</svg>
