<svg width="18" height="18" viewBox="0 0 18 18" fill="none" xmlns="http://www.w3.org/2000/svg">
<path d="M13.6477 11.1796C13.6477 12.4728 12.5979 13.5226 11.3048 13.5226H6.79954C5.50637 13.5226 4.45655 12.4728 4.45655 11.1796V6.67439C4.45655 5.38123 5.50637 4.3314 6.79954 4.3314H11.3048C12.5979 4.3314 13.6477 5.38123 13.6477 6.67439V11.1796ZM14.7184 6.67439C14.7184 4.79027 13.1889 3.26072 11.3048 3.26072H6.79954C4.91541 3.26072 3.38586 4.79027 3.38586 6.67439V11.1796C3.38586 13.0637 4.91541 14.5933 6.79954 14.5933H11.3048C13.1889 14.5933 14.7184 13.0637 14.7184 11.1796V6.67439ZM9.073 10.7903C8.08575 10.7903 7.27926 9.98378 7.27926 8.99652C7.27926 8.00927 8.08575 7.20278 9.073 7.20278C10.0603 7.20278 10.8667 8.00927 10.8667 8.99652C10.8667 9.99073 10.0603 10.7903 9.073 10.7903ZM9.073 6.20162C7.52955 6.20162 6.2781 7.46002 6.2781 8.99652C6.2781 10.54 7.5365 11.7914 9.073 11.7914C10.6165 11.7914 11.8679 10.54 11.8679 8.99652C11.8679 7.46002 10.6165 6.20162 9.073 6.20162ZM12.0348 5.34647C11.6663 5.34647 11.3673 5.64542 11.3673 6.0139C11.3673 6.38239 11.6663 6.68134 12.0348 6.68134C12.4032 6.68134 12.7022 6.38239 12.7022 6.0139C12.7022 5.64542 12.4032 5.34647 12.0348 5.34647ZM8.99652 0.855156C4.50521 0.855156 0.855157 4.50521 0.855157 8.99652C0.855157 13.4878 4.50521 17.1379 8.99652 17.1379C13.4878 17.1379 17.1379 13.4878 17.1379 8.99652C17.1379 4.50521 13.4878 0.855156 8.99652 0.855156ZM8.99652 18C4.0394 18 0 13.9606 0 8.99652C0 4.03244 4.0394 0 8.99652 0C13.9537 0 17.993 4.0394 17.993 8.99652C17.993 13.9537 13.9606 18 8.99652 18Z" fill="url(#paint0_linear)"/>
<defs>
<linearGradient id="paint0_linear" x1="1.55152" y1="16.4477" x2="26.0836" y2="-8.08436" gradientUnits="userSpaceOnUse">
<stop stop-color="#F9E66C"/>
<stop offset="0.2" stop-color="#FCB426"/>
<stop offset="0.37" stop-color="#F72F5F"/>
<stop offset="0.52" stop-color="#D61986"/>
<stop offset="0.73" stop-color="#6C278F"/>
<stop offset="1" stop-color="#4A3796"/>
</linearGradient>
</defs>
</svg>
