<svg width="19" height="18" viewBox="0 0 19 18" fill="none" xmlns="http://www.w3.org/2000/svg">
<path d="M9.45835 13.7405C8.60169 13.7405 7.75907 13.5206 7.02178 13.0947C6.94454 13.0466 6.85325 13.026 6.76197 13.026C6.71984 13.026 6.67069 13.0328 6.62855 13.0466L5.02056 13.4794L5.58231 12.2771C5.65955 12.1122 5.63848 11.9198 5.53315 11.7756C4.9363 10.9649 4.62031 10.0099 4.62031 9.00687C4.62031 6.39618 6.79006 4.26641 9.46537 4.26641C12.1337 4.26641 14.3104 6.38931 14.3104 9.00687C14.3034 11.6107 12.1337 13.7405 9.45835 13.7405ZM11.7194 9.85878C11.4736 9.7145 11.1506 9.55649 10.8627 9.67328C10.638 9.7626 10.4976 10.0992 10.3571 10.2779C10.2799 10.3672 10.1956 10.3809 10.0833 10.3328C9.24769 10.0099 8.60871 9.46031 8.15229 8.71145C8.07505 8.59466 8.08909 8.50534 8.18038 8.39542C8.32081 8.2374 8.49636 8.05191 8.53147 7.83893C8.56658 7.62595 8.46827 7.37176 8.37699 7.17939C8.25762 6.93206 8.13122 6.58168 7.87844 6.44427C7.64672 6.31374 7.34478 6.38931 7.13413 6.5542C6.77601 6.83588 6.60749 7.28244 6.61451 7.72214C6.61451 7.8458 6.62856 7.96947 6.66367 8.09313C6.73388 8.38168 6.87432 8.65649 7.0288 8.91069C7.14817 9.10305 7.27456 9.29542 7.40798 9.47405C7.85035 10.0649 8.40507 10.5802 9.05108 10.9649C9.37408 11.1573 9.71816 11.329 10.0763 11.4458C10.4765 11.5763 10.8346 11.7069 11.27 11.6313C11.7264 11.5489 12.1688 11.274 12.3513 10.8412C12.4075 10.7176 12.4286 10.5733 12.4005 10.4359C12.3303 10.1542 11.9441 9.99618 11.7194 9.85878ZM9.45835 3.25649C6.22129 3.25649 3.58811 5.83282 3.58811 9C3.58811 10.113 3.91111 11.1847 4.52903 12.1122L3.63726 14.0359C3.553 14.2145 3.58811 14.4206 3.7145 14.5718C3.8128 14.6817 3.95324 14.7504 4.1007 14.7504C4.14985 14.7504 4.19199 14.7435 4.23412 14.7298L6.69175 14.0702C7.54139 14.5168 8.48934 14.7504 9.45835 14.7504C12.6954 14.7504 15.3286 12.174 15.3286 9.00687C15.3286 5.83282 12.6954 3.25649 9.45835 3.25649ZM18.6569 9C18.6569 13.9672 14.5421 18 9.45835 18C4.38157 18 0.259766 13.974 0.259766 9C0.259766 4.02595 4.38157 0 9.45835 0C14.5421 0 18.6569 4.02595 18.6569 9Z" fill="#7EC54B"/>
</svg>
