<svg width="19" height="18" viewBox="0 0 19 18" fill="none" xmlns="http://www.w3.org/2000/svg">
<path d="M15.3192 5.53053C14.9611 5.68855 14.5608 5.78473 14.1746 5.85344C14.3572 5.82595 14.6311 5.49618 14.7364 5.36565C14.9049 5.16641 15.0383 4.93282 15.1156 4.6855C15.1226 4.66489 15.1296 4.64427 15.1156 4.62366C15.0875 4.61679 15.0734 4.61679 15.0524 4.63053C14.617 4.85725 14.1676 5.02214 13.6901 5.13893C13.648 5.1458 13.6199 5.13893 13.5989 5.11145C13.5567 5.07023 13.5216 5.02901 13.4795 4.99466C13.2758 4.82977 13.0652 4.69924 12.8194 4.60305C12.5035 4.47252 12.1524 4.42443 11.8083 4.44504C11.4712 4.46565 11.1482 4.55496 10.8533 4.70611C10.5584 4.85725 10.2916 5.07023 10.0809 5.32443C9.86325 5.5855 9.70174 5.90153 9.61748 6.2313C9.54024 6.54733 9.54726 6.86336 9.58939 7.18626C9.59642 7.24122 9.58939 7.24809 9.54024 7.24122C7.67244 6.96641 6.12764 6.31374 4.87073 4.91221C4.81456 4.85038 4.78647 4.85038 4.74434 4.91908C4.19664 5.7229 4.46347 7.02137 5.15161 7.6603C5.24289 7.74275 5.33417 7.83206 5.4395 7.90763C5.40439 7.9145 4.94797 7.86641 4.54071 7.6603C4.48453 7.62595 4.45645 7.64656 4.45645 7.7084C4.44942 7.79771 4.45645 7.87328 4.47049 7.96947C4.57582 8.78702 5.15161 9.54275 5.94507 9.83817C6.03636 9.87939 6.14168 9.91374 6.24701 9.92748C6.06444 9.9687 5.88188 9.99618 5.36226 9.95496C5.29907 9.94122 5.27098 9.97557 5.29907 10.0374C5.68527 11.0748 6.52788 11.384 7.15985 11.5557C7.24411 11.5695 7.32837 11.5695 7.41263 11.5901C7.40561 11.5969 7.40561 11.5969 7.39859 11.6038C7.18793 11.913 6.46469 12.1466 6.12764 12.2634C5.51674 12.4763 4.84967 12.5656 4.20366 12.5038C4.09833 12.4901 4.07727 12.4901 4.04918 12.5038C4.02109 12.5176 4.04216 12.545 4.07727 12.5725C4.21068 12.655 4.3441 12.7305 4.47751 12.8061C4.8918 13.0191 5.32013 13.1908 5.76251 13.3076C8.07971 13.9328 10.6848 13.4725 12.4192 11.7824C13.7814 10.4565 14.2589 8.62901 14.2589 6.79466C14.2589 6.72595 14.3432 6.68473 14.3993 6.64351C14.7575 6.38244 15.0383 6.07328 15.2981 5.7229C15.3543 5.64733 15.3543 5.57176 15.3543 5.54427C15.3543 5.5374 15.3543 5.5374 15.3543 5.5374C15.3613 5.50305 15.3613 5.50992 15.3192 5.53053ZM7.39859 13.5824C7.52498 13.5824 7.39157 13.5824 7.39859 13.5824C7.36348 13.5824 7.39859 13.5824 7.39859 13.5824ZM7.39859 13.5824C8.35355 13.5824 7.44072 13.5824 7.39859 13.5824C7.38454 13.5824 7.209 13.5824 7.39859 13.5824ZM7.77777 13.5893C7.77777 13.5756 7.9814 13.5893 7.77777 13.5893C7.77777 13.5824 7.79883 13.5893 7.77777 13.5893ZM18.9284 9C18.9284 13.9672 14.8136 18 9.72983 18C4.64603 18 0.53125 13.974 0.53125 9C0.53125 4.02595 4.64603 0 9.72983 0C14.8136 0 18.9284 4.02595 18.9284 9Z" fill="#68C7DD"/>
</svg>
