<svg width="20" height="18" viewBox="0 0 20 18" fill="none" xmlns="http://www.w3.org/2000/svg">
<path d="M11.9213 9.19237L9.33722 10.5802C9.22487 10.642 9.12657 10.5595 9.12657 10.4359V7.5916C9.12657 7.46794 9.2319 7.3855 9.34425 7.44733L11.9423 8.90382C12.0617 8.96565 12.0406 9.13053 11.9213 9.19237ZM16.008 7.55725C16.008 6.21069 14.8915 5.11832 13.5082 5.11832H7.03407C5.65779 5.11832 4.54132 6.21069 4.54132 7.55725V10.5252C4.54132 11.8718 5.65779 12.9641 7.03407 12.9641H13.5082C14.8845 12.9641 16.008 11.8718 16.008 10.5252V7.55725ZM19.3854 9C19.3854 13.9672 15.2636 18 10.1869 18C5.11009 18 0.988281 13.974 0.988281 9C0.988281 4.02595 5.11009 0 10.1869 0C15.2707 0 19.3854 4.02595 19.3854 9Z" fill="#FF0801"/>
</svg>
